<svg width="24" height="24" fill="none" xmlns="http://www.w3.org/2000/svg"><mask id="a" style="mask-type:alpha" maskUnits="userSpaceOnUse" x="0" y="0" width="24" height="24"><path fill="#C4C4C4" d="M0 0h24v24H0z"/></mask><g mask="url(#a)" fill="#1D9BF0"><path d="M18.7499 10.48V8.78003h-4.4V15.18h1.7v-2h2v-1.7h-2v-1h2.7Zm-7.3-1.69997h1.7V15.18h-1.7V8.78003Zm-3.6 1.59997c.4 0 .9.2 1.2.5l1.2-.99997c-.6-.7-1.5-1.1-2.4-1.1-1.8 0-3.2 1.39997-3.2 3.19997s1.4 3.2 3.2 3.2c1 0 1.8-.4 2.4-1.1v-2.5h-2.8v1.2h1.2v.6c-.2.1-.5.2-.8.2-.9 0-1.6-.7-1.6-1.6 0-.8.7-1.6 1.6-1.6Z"/><path d="M20.25 2h-17C2.01 2 1 3.007 1 4.247v15.507C1 20.992 2.01 22 3.25 22h17c1.24 0 2.25-1.008 2.25-2.246V4.247C22.5 3.007 21.49 2 20.25 2ZM21 19.754c0 .41-.336.746-.75.746h-17c-.414 0-.75-.336-.75-.746V4.247c0-.412.336-.747.75-.747h17c.414 0 .75.335.75.747v15.507Z"/></g></svg>