<svg width="24" height="24" fill="none" xmlns="http://www.w3.org/2000/svg"><mask id="a" style="mask-type:alpha" maskUnits="userSpaceOnUse" x="0" y="0" width="24" height="24"><path fill="#C4C4C4" d="M0 0h24v24H0z"/></mask><g mask="url(#a)" fill="#1D9BF0"><path d="M19.75 2H4.25C3.01 2 2 3.01 2 4.25v15.5C2 20.99 3.01 22 4.25 22h15.5c1.24 0 2.25-1.01 2.25-2.25V4.25C22 3.01 20.99 2 19.75 2ZM4.25 3.5h15.5c.413 0 .75.337.75.75v9.676l-3.858-3.858c-.14-.14-.33-.22-.53-.22h-.003c-.2 0-.393.08-.532.224l-4.317 4.384-1.81299-1.806c-.14-.14-.33-.22-.53-.22-.193-.03-.39501.08-.53501.227L3.5 17.642V4.25c0-.413.337-.75.75-.75Zm-.744 16.28 5.418-5.534 6.282 6.254H4.25c-.402 0-.727-.322-.744-.72Zm16.244.72h-2.42l-5.007-4.987 3.792-3.85 4.385 4.384v3.703c0 .413-.337.75-.75.75Z"/><path d="M8.86816 9.85097c.852 0 1.54204-.6903 1.54204-1.542 0-.8516-.69004-1.542-1.54204-1.542-.852 0-1.54199.6904-1.54199 1.542 0 .8517.68999 1.542 1.54199 1.542Z"/></g></svg>