<svg width="22" height="22" fill="none" xmlns="http://www.w3.org/2000/svg"><path d="M-37.9 17c-.1-.1-.1-.1-.1-.2.1 0 .1.1.1.2ZM18 1.19998h-1.3V.899976c0-.4-.3-.8000004-.8-.8000004-.4 0-.8.3000004-.8.8000004v.300004H7.7V.899976c0-.4-.3-.8000004-.8-.8000004-.4 0-.8.3000004-.8.8000004v.300004H4.8c-1.4 0-2.5 1.1-2.5 2.5V16.8c0 1.4 1.1 2.5 2.5 2.5h2.9c.4 0 .8-.3.8-.8 0-.4-.3-.8-.8-.8H4.8c-.6 0-1-.5-1-1V6.89998c0-.3.4-.7 1-.7H18c.6 0 1 .4 1 .7v1.8c0 .39999.3.8.8.8.4 0 .8-.3.8-.8v-5c-.1-1.4-1.2-2.5-2.6-2.5Zm1 3.7c-.3-.1-.7-.2-1-.2H4.8c-.4 0-.7.1-1 .2v-1.2c0-.6.5-1 1-1h1.3v.5c0 .4.3.8.8.8.4 0 .8-.3.8-.8v-.5h7.5v.5c0 .4.3.8.8.8.4 0 .8-.3.8-.8v-.5H18c.6 0 1 .5 1 1v1.2Z" fill="#1D9BF0"/><path d="M15.5 9.39996c-3.4 0-6.2 2.80004-6.2 6.20004 0 3.4 2.8 6.2 6.2 6.2 3.4 0 6.2-2.8 6.2-6.2 0-3.4-2.8-6.20004-6.2-6.20004ZM15.5 20.4c-2.6 0-4.7-2.1-4.7-4.7s2.1-4.7 4.7-4.7 4.7 2.1 4.7 4.7c0 2.5-2.1 4.7-4.7 4.7Z" fill="#1D9BF0"/><path d="M18.9 17.7c-.1.2-.4.4-.6.4-.1 0-.3 0-.4-.1l-3.1-2v-3c0-.4.3-.8.8-.8.4 0 .8.3.8.8v2.2l2.4 1.5c.2.2.3.6.1 1Z" fill="#1D9BF0"/></svg>