<svg width="24" height="24" fill="none" xmlns="http://www.w3.org/2000/svg"><mask id="a" style="mask-type:alpha" maskUnits="userSpaceOnUse" x="0" y="0" width="24" height="24"><path fill="#C4C4C4" d="M0 0h24v24H0z"/></mask><g mask="url(#a)" fill="#1D9BF0"><path d="M11.75 22.5C5.822 22.5 1 17.678 1 11.75S5.822 1 11.75 1 22.5 5.822 22.5 11.75 17.678 22.5 11.75 22.5Zm0-20c-5.1 0-9.25 4.15-9.25 9.25S6.65 21 11.75 21 21 16.85 21 11.75 16.85 2.5 11.75 2.5Z"/><path d="M11.7502 16.8651c-1.89196 0-3.63295-.95-4.65595-2.544-.224-.348-.123-.81.226-1.035.348-.226.812-.124 1.036.226.747 1.162 2.01595 1.855 3.39495 1.855s2.648-.693 3.396-1.854c.224-.35.688-.45 1.036-.225.35.224.45.688.226 1.036-1.025 1.594-2.766 2.545-4.658 2.545l-.001-.004ZM14.4878 10.686c.8163 0 1.478-.6617 1.478-1.47802 0-.8163-.6617-1.478-1.478-1.478s-1.478.6617-1.478 1.478c0 .81632.6617 1.47802 1.478 1.47802ZM9.01218 10.686c.8163 0 1.47802-.6617 1.47802-1.47802 0-.8163-.66172-1.478-1.47802-1.478-.81628 0-1.478.6617-1.478 1.478 0 .81632.66172 1.47802 1.478 1.47802Z"/></g></svg>