<svg width="24" height="22" fill="none" xmlns="http://www.w3.org/2000/svg"><path d="m22.772 9.50599-5.618-2.192-2.16-6.500002c-.102-.307-.39-.514-.712-.514-.322 0-.61.207-.712.513L11.41 7.31299l-5.62 2.192c-.287.112-.477.39-.477.70001 0 .31.19.585.478.698l5.62 2.192 2.16 6.5c.102.306.39.513.712.513.322 0 .61-.207.712-.513l2.16-6.5 5.62-2.192c.287-.112.477-.39.477-.7 0-.31001-.19-.58501-.478-.69701h-.002Zm-6.49 2.32001c-.208.08-.37.25-.44.46l-1.56 4.695-1.56-4.693c-.07-.21-.23-.38-.438-.462l-4.155-1.62 4.154-1.62201c.208-.08.37-.25.44-.462l1.56-4.693 1.56 4.694c.07.212.23.382.438.463l4.155 1.62001-4.155 1.622.001-.002ZM6.663 2.81199h-1.88v-1.762c0-.414002-.337-.750002-.75-.750002s-.75.336-.75.750002v1.762H1.5c-.414 0-.75.336-.75.75s.336.75.75.75h1.782v1.762c0 .414.336.75.75.75s.75-.336.75-.75v-1.762h1.88c.415 0 .75-.336.75-.75s-.335-.75-.75-.75h.001ZM9.198 18.434h-1.1v-1.016c0-.414-.335-.75-.75-.75s-.75.336-.75.75v1.016H5.57c-.414 0-.75.336-.75.75s.336.75.75.75H6.6v1.016c0 .414.335.75.75.75s.75-.336.75-.75v-1.016h1.098c.414 0 .75-.336.75-.75s-.336-.75-.75-.75Z" fill="#000"/></svg>