<svg width="24" height="24" fill="none" xmlns="http://www.w3.org/2000/svg"><mask id="a" style="mask-type:alpha" maskUnits="userSpaceOnUse" x="0" y="0" width="24" height="24"><path fill="#C4C4C4" d="M0 0h24v24H0z"/></mask><g mask="url(#a)"><path d="M20.222 9.552h-1.334c.015-.09.028-.182.028-.277V6.962c0-.98-.797-1.777-1.778-1.777H3.5V3.75c0-.414-.336-.75-.75-.75S2 3.336 2 3.75v17.472c0 .415.336.75.75.75s.75-.335.75-.75v-1.434h10.556c.98 0 1.778-.797 1.778-1.777v-2.313c0-.095-.014-.187-.028-.278h4.417c.98 0 1.778-.798 1.778-1.778v-2.31c0-.983-.797-1.78-1.778-1.78h-.001ZM17.14 6.685c.152 0 .277.124.277.277v2.31c0 .154-.125.28-.278.28H3.5v-2.87h13.64v.003Zm-2.807 9.014v2.312c0 .153-.125.277-.278.277H3.5V15.42h10.556c.153 0 .277.126.277.28v-.001Zm6.167-2.057c0 .153-.125.277-.278.277H3.5v-2.867h16.722c.153 0 .278.124.278.277v2.313Z" fill="#1D9BF0"/></g></svg>