<svg width="24" height="24" fill="none" xmlns="http://www.w3.org/2000/svg"><mask id="a" style="mask-type:alpha" maskUnits="userSpaceOnUse" x="0" y="0" width="24" height="24"><path fill="#C4C4C4" d="M0 0h24v24H0z"/></mask><g mask="url(#a)"><path d="M13.95 2.01 9.802 2H9.8C5.426 2 2 5.427 2 9.80201 2 13.9 5.186 17.008 9.465 17.172V21c0 .108.044.286.12.403.142.225.38399.347.632.347.138 0 .277-.038.402-.118.264-.168 6.473-4.14 8.088-5.506 1.902-1.61 3.04-3.97 3.043-6.31199v-.017C21.744 5.43 18.32 2.01 13.95 2.009v.001Zm3.787 12.972c-1.134.96-4.862 3.405-6.772 4.643v-3.187c0-.414-.335-.75-.75-.75h-.396c-3.66 0-6.318-2.476-6.318-5.88599C3.501 6.268 6.269 3.5 9.801 3.5l4.147.01h.002c3.532 0 6.3 2.766 6.302 6.29601-.003 1.90999-.942 3.84399-2.514 5.17599h-.001Z" fill="#536471"/></g></svg>