<svg width="24" height="24" fill="none" xmlns="http://www.w3.org/2000/svg"><mask id="a" style="mask-type:alpha" maskUnits="userSpaceOnUse" x="0" y="0" width="24" height="24"><path fill="#C4C4C4" d="M0 0h24v24H0z"/></mask><g mask="url(#a)" fill="#536471"><path d="m17.53 7.21975-5-5c-.293-.293-.768-.293-1.06 0l-4.99999 5c-.294.293-.294.768 0 1.06.294.292.767.294 1.06 0l3.71999-3.72V14.7498c0 .414.336.75.75.75s.75-.336.75-.75V4.55975l3.72 3.72c.146.147.338.22.53.22s.384-.072.53-.22c.293-.293.293-.767 0-1.06Z"/><path d="M19.708 21.6938H4.29201C3.02801 21.6938 2 20.6658 2 19.4018v-5.652c0-.414.336-.75.75-.75s.75.336.75.75v5.652c0 .437.35501.792.79201.792H19.708c.437 0 .792-.355.792-.792v-5.652c0-.414.336-.75.75-.75s.75.336.75.75v5.652c0 1.264-1.028 2.292-2.292 2.292Z"/></g></svg>