<svg width="24" height="24" fill="none" xmlns="http://www.w3.org/2000/svg"><mask id="a" style="mask-type:alpha" maskUnits="userSpaceOnUse" x="0" y="0" width="24" height="24"><path fill="#C4C4C4" d="M0 0h24v24H0z"/></mask><g mask="url(#a)"><path d="M23.7585 15.7705c-.292-.293-.767-.293-1.06 0l-2.22 2.22v-10.24c0-2.068-1.683-3.75-3.75-3.75h-5.85c-.414 0-.75.336-.75.75s.336.75.75.75h5.85c1.24 0 2.25 1.01 2.25 2.25v10.24l-2.22-2.22c-.293-.293-.768-.293-1.06 0-.292.293-.294.768 0 1.06l3.5 3.5c.145.147.337.22.53.22s.383-.072.53-.22l3.5-3.5c.294-.292.294-.767 0-1.06Zm-10.66 3.28h-5.85c-1.24 0-2.25-1.01-2.25-2.25v-10.24l2.22 2.22c.148.147.34.21999.532.21999s.384-.07299.53-.21999c.293-.293.293-.76801 0-1.06l-3.5-3.5c-.293-.294-.768-.294-1.06 0l-3.5 3.5c-.294.29199-.294.767 0 1.06.294.293.767001.293 1.06 0l2.22-2.22v10.24c0 2.068 1.683 3.75 3.75 3.75h5.85c.414 0 .75-.336.75-.75s-.337-.75-.75-.75h-.002Z" fill="#0CB345"/></g></svg>