<svg width="21" height="24" fill="none" xmlns="http://www.w3.org/2000/svg"><path d="M19.8083 23.8416c-.1831 0-.364-.0583-.5156-.168l-8.701-6.3326-8.70103 6.335c-.266.1913-.61835.2216-.91235.07C.686653 23.5978.5 23.2968.5 22.9678V2.95831C.5 1.51165 1.67833.333313 3.125.333313h14.931c1.4467 0 2.625 1.178337 2.625 2.624997V22.9666c0 .329-.1843.63-.4783.7794-.1237.0641-.2602.0956-.3967.0956h.0023Zm-9.2166-8.4583c.1808 0 .3616.056.5133.168l7.8283 5.6968V2.95831c0-.48066-.3931-.875-.875-.875H3.125c-.48183 0-.875.39434-.875.875V21.2481l7.8283-5.6968c.1517-.112.3325-.168.5134-.168Z" fill="#000"/></svg>