<svg width="24" height="24" fill="none" xmlns="http://www.w3.org/2000/svg"><path d="M22.2085 6.43374h-4.585l.434-4.984c.042-.480667-.315-.904163-.7957-.947329-.4865-.035-.9053.314998-.9473.796829l-.4468 5.13333H8.49433l.43166-4.98167c.04317-.481836-.315-.905323-.79333-.948489-.49-.035-.9065.314998-.9485.796829l-.44567 5.13333H2.12083c-.483 0-.875.39317-.875.875s.392.875.875.875h4.466l-.64167 7.38153H1.2085c-.483004 0-.875004.392-.875004.875s.392.875.875004.875h4.585l-.43401 4.984c-.042.4806.315.9041.79567.9473l.077.0035c.44917 0 .83067-.3442.87034-.8003l.44683-5.1334h7.37337l-.4317 4.9817c-.042.4818.315.9053.7957.9485l.077.0035c.4491 0 .8306-.3442.8703-.8003l.4457-5.1334h4.6165c.4818 0 .875-.3931.875-.875 0-.4818-.3932-.875-.875-.875h-4.466l.6416-7.38146h4.7367c.483 0 .875-.392.875-.875s-.392-.875-.875-.875Zm-7.1342 9.13036H7.701l.64166-7.38036H15.716l-.6417 7.38036Z" fill="#000"/></svg>