<svg width="26" height="24" fill="none" xmlns="http://www.w3.org/2000/svg"><path d="M25.0286 6.80248 13.2417.438313c-.2601-.14-.5716-.14-.8318 0L.625393 6.80248c-.424667.22984-.5833308.76067-.353497 1.1865.1575.29167.459666.45849.770004.45849.14 0 .28349-.035.41533-.105l.95083-.51333L4.30856 21.261c.24967 1.4175 1.526 2.4056 3.101 2.4056H18.2386c1.5773 0 2.8525-.9893 3.1068-2.4348l1.897-13.40499.9543.51566c.4247.22517.9567.07 1.1865-.35466.2287-.4235.07-.95433-.3546-1.18533Zm-5.411 14.15512c-.1249.707-.8202.959-1.3767.959H7.41189c-.56 0-1.25416-.252-1.37433-.931L4.05189 6.94248l8.77331-4.739 8.7757 4.73666-1.9833 14.01746Z" fill="#000"/><path d="M8.4152 12.1854c0 2.4314 1.9775 4.41 4.41 4.41s4.41-1.9786 4.41-4.41c0-2.43129-1.9775-4.40996-4.41-4.40996s-4.41 1.97867-4.41 4.40996Zm7.07 0c0 1.4677-1.1923 2.66-2.66 2.66-1.4677 0-2.66-1.1923-2.66-2.66 0-1.4676 1.1923-2.65996 2.66-2.65996 1.4677 0 2.66 1.19236 2.66 2.65996Z" fill="#000"/></svg>