<svg width="28" height="28" fill="none" xmlns="http://www.w3.org/2000/svg"><mask id="a" style="mask-type:alpha" maskUnits="userSpaceOnUse" x="0" y="0" width="28" height="28"><path fill="#C4C4C4" d="M0 0h28v28H0z"/></mask><g mask="url(#a)" fill="#000"><path d="M23.0418 25.6666H4.9585c-1.44667 0-2.625-1.1783-2.625-2.625V4.95831c0-1.44666 1.17833-2.625 2.625-2.625h18.0833c1.4467 0 2.625 1.17834 2.625 2.625V23.0416c0 1.4467-1.1783 2.625-2.625 2.625ZM4.9585 4.08331c-.483 0-.875.39317-.875.875V23.0416c0 .4819.392.875.875.875h18.0833c.483 0 .875-.3931.875-.875V4.95831c0-.48183-.392-.875-.875-.875H4.9585Z"/><path d="M19.5417 9.91669H7.875c-.483 0-.875-.39317-.875-.875 0-.48184.392-.875.875-.875h11.6667c.483 0 .875.39083.875.875 0 .48416-.392.875-.875.875Zm0 4.79501H7.875c-.483 0-.875-.392-.875-.875s.392-.875.875-.875h11.6667c.483 0 .875.392.875.875s-.392.875-.875.875Zm-5.8334 4.795H7.875c-.483 0-.875-.3908-.875-.875s.392-.875.875-.875h5.8333c.483 0 .875.3932.875.875s-.392.875-.875.875Z"/></g></svg>