<svg width="24" height="22" fill="none" xmlns="http://www.w3.org/2000/svg"><path d="M20.4585.5H3.54183C1.772.5.333496 1.93967.333496 3.71067V18.2882c0 1.771 1.438504 3.2118 3.208334 3.2118H20.4585c1.7698 0 3.2083-1.4408 3.2083-3.2118V3.71067C23.6668 1.93967 22.2283.5 20.4585.5ZM3.54183 2.25H20.4585c.805 0 1.4583.65333 1.4583 1.45833v.83299l-9.3916 6.26148c-.3185.21-.7304.2124-1.05-.0023L2.0835 4.54132v-.83299c0-.805.65333-1.45833 1.45833-1.45833ZM20.4585 19.7477H3.54183c-.805 0-1.45833-.6534-1.45833-1.4584V6.59233l8.4467 5.63497c.4468.2987.959.448 1.47.448.5133 0 1.0231-.1493 1.47-.4468l8.4466-5.63501V18.2858c0 .805-.6533 1.4584-1.4583 1.4584v.0035Z" fill="#000"/></svg>