<svg width="26" height="26" fill="none" xmlns="http://www.w3.org/2000/svg"><path d="M17.9582 10.6667c-1.1259 0-2.0417.9182-2.0417 2.0417s.9147 2.0416 2.0417 2.0416c1.1246 0 2.0416-.917 2.0416-2.0416 0-1.1247-.917-2.0417-2.0416-2.0417Zm0 2.9167c-.483 0-.875-.392-.875-.875 0-.4819.3931-.875.875-.875.4818 0 .875.392.875.875 0 .4818-.392.875-.875.875Zm-5.25-2.9167c-1.127 0-2.0417.9182-2.0417 2.0417s.9158 2.0416 2.0417 2.0416c1.1258 0 2.0416-.917 2.0416-2.0416 0-1.1247-.9146-2.0417-2.0416-2.0417Zm0 2.9167c-.483 0-.875-.392-.875-.875 0-.4819.3931-.875.875-.875.4818 0 .875.392.875.875 0 .4818-.392.875-.875.875Zm-5.25003-2.9167c-1.12583 0-2.04167.9182-2.04167 2.0417S6.33234 14.75 7.45817 14.75c1.12467 0 2.04167-.917 2.04167-2.0416 0-1.1247-.91817-2.0417-2.04167-2.0417Zm0 2.9167c-.483 0-.875-.392-.875-.875 0-.4819.39317-.875.875-.875s.875.392.875.875c0 .4818-.392.875-.875.875Z" fill="#000"/><path d="M12.7082 25.25C5.79217 25.25.166504 19.6244.166504 12.7084.166504 5.79235 5.79217.166687 12.7082.166687c6.916 0 12.5416 5.625663 12.5416 12.541713 0 6.916-5.6256 12.5416-12.5416 12.5416Zm0-23.33331c-5.95003 0-10.7917 4.84166-10.7917 10.79171 0 5.95 4.84167 10.7916 10.7917 10.7916 5.95 0 10.7916-4.8416 10.7916-10.7916 0-5.95005-4.8416-10.79171-10.7916-10.79171Z" fill="#000"/></svg>