<svg width="24" height="24" fill="#000" xmlns="http://www.w3.org/2000/svg"><path d="M23.3142 17.2943c-.0233-.0186-2.4967-1.9133-2.4535-7.035.0233-2.95397-.9473-5.57898-2.7382-7.39082-1.6041-1.62516-3.7764-2.5235-6.1156-2.535167h-.0152C9.65373.34498 7.48139 1.24333 5.87606 2.86966c-1.78967 1.81183-2.76266 4.43567-2.737 7.38964.04317 5.0517-2.356668 6.9615-2.452335 7.035-.303333.2252-.426999.6184-.309166.9777.119.3593.454989.6008.830651.6008h5.74002c.119 2.695 2.32982 4.8534 5.05167 4.8534 2.7218 0 4.9303-2.1584 5.0482-4.8534h5.7423c.3757 0 .7116-.2403.8283-.5996.1202-.3582-.0035-.7526-.3068-.9777l.0023-.0012Zm-11.3131 4.6784c-1.7559 0-3.18505-1.3732-3.29938-3.101h6.59868c-.1167 1.7266-1.5435 3.1033-3.2993 3.1033v-.0023Zm-8.89004-4.851c.86334-1.3207 1.806-3.5327 1.778-6.8787-.021-2.52002.75133-4.64568 2.23183-6.14485 1.27517-1.2915 3.01001-2.00667 4.88021-2.01484 1.8701.00934 3.6014.72335 4.8766 2.01602 1.4817 1.49916 2.2552 3.62366 2.2342 6.14487-.028 3.346.9158 5.5591 1.7791 6.8786H3.11106v-.0011Z" fill="#000"/></svg>