<svg width="20" height="20" fill="none" xmlns="http://www.w3.org/2000/svg"><path d="M17.708 0H2.292C1.028 0 0 1.028 0 2.292v15.416C0 18.972 1.028 20 2.292 20h15.416C18.972 20 20 18.972 20 17.708V2.292C20 1.028 18.972 0 17.708 0Zm.792 17.708c0 .437-.355.792-.792.792H2.292c-.437 0-.792-.355-.792-.792V4.418c0-.437.354-.79.79-.792h15.42c.436 0 .79.355.79.79V17.71v-.002Z" fill="#000"/><path d="M5.03207 8.035c.70969 0 1.285-.57532 1.285-1.285 0-.70969-.57531-1.285-1.285-1.285-.70969 0-1.285.57531-1.285 1.285 0 .70968.57531 1.285 1.285 1.285ZM5.03207 12.441c.70969 0 1.285-.5753 1.285-1.285 0-.7097-.57531-1.285-1.285-1.285-.70969 0-1.285.5753-1.285 1.285 0 .7097.57531 1.285 1.285 1.285ZM14.9681 8.035c.7097 0 1.285-.57532 1.285-1.285 0-.70969-.5753-1.285-1.285-1.285-.7097 0-1.285.57531-1.285 1.285 0 .70968.5753 1.285 1.285 1.285ZM14.9681 12.441c.7097 0 1.285-.5753 1.285-1.285 0-.7097-.5753-1.285-1.285-1.285-.7097 0-1.285.5753-1.285 1.285 0 .7097.5753 1.285 1.285 1.285ZM9.99984 8.035c.70966 0 1.28496-.57532 1.28496-1.285 0-.70969-.5753-1.285-1.28496-1.285-.70968 0-1.285.57531-1.285 1.285 0 .70968.57532 1.285 1.285 1.285ZM9.99984 12.441c.70966 0 1.28496-.5753 1.28496-1.285 0-.7097-.5753-1.285-1.28496-1.285-.70968 0-1.285.5753-1.285 1.285 0 .7097.57532 1.285 1.285 1.285ZM5.03207 16.771c.70969 0 1.285-.5753 1.285-1.285 0-.7097-.57531-1.285-1.285-1.285-.70969 0-1.285.5753-1.285 1.285 0 .7097.57531 1.285 1.285 1.285ZM9.99984 16.771c.70966 0 1.28496-.5753 1.28496-1.285 0-.7097-.5753-1.285-1.28496-1.285-.70968 0-1.285.5753-1.285 1.285 0 .7097.57532 1.285 1.285 1.285Z" fill="#000"/></svg>