<svg width="18" height="20" fill="none" xmlns="http://www.w3.org/2000/svg"><path d="M8.99989 12.315c-2.088 0-3.787-1.698-3.787-3.78601 0-2.088 1.7-3.789 3.787-3.789 2.08701 0 3.78701 1.7 3.78701 3.787 0 2.08701-1.7 3.78501-3.78701 3.78501v.003Zm0-6.07301c-1.26 0-2.287 1.026-2.287 2.287s1.027 2.28501 2.287 2.28501c1.26001 0 2.28701-1.02501 2.28701-2.28601 0-1.261-1.027-2.288-2.28701-2.288v.002Z" fill="#000"/><path d="M17.6921 8.69c0-4.79-3.9-8.69-8.692-8.69C4.20811 0 .308105 3.9.308105 8.69c0 1.902.603001 3.708 1.743005 5.223l.003-.002.007.015c1.628 2.07 6.278 5.757 6.475 5.912.138.11.302.163.465.163.163 0 .32699-.053.46499-.162.197-.155 4.847-3.84 6.475-5.912l.007-.014.002.002c1.14-1.516 1.742-3.32 1.742-5.223V8.69Zm-8.692 9.6c-1.224-.99-4.51999-3.715-5.75599-5.285-.94-1.25-1.436-2.742-1.436-4.312 0-3.966 3.22699-7.193 7.19199-7.193s7.192 3.226 7.192 7.19c0 1.57-.497 3.062-1.436 4.313-1.236 1.57-4.532 4.294-5.756 5.285v.002Z" fill="#000"/></svg>