<svg width="24" height="24" fill="none" xmlns="http://www.w3.org/2000/svg"><mask id="a" style="mask-type:alpha" maskUnits="userSpaceOnUse" x="0" y="0" width="24" height="24"><path fill="#C4C4C4" d="M0 0h24v24H0z"/></mask><g mask="url(#a)" fill="#000"><path d="M11.79 8.23193c-2.09001 0-3.79 1.7-3.79 3.78997 0 2.09 1.69999 3.79 3.79 3.79 2.09 0 3.79-1.7 3.79-3.79 0-2.08997-1.7-3.78997-3.79-3.78997Zm0 6.07997c-1.262 0-2.29-1.026-2.29-2.29s1.03-2.28997 2.29-2.28997 2.29 1.02597 2.29 2.28997c0 1.264-1.028 2.29-2.29 2.29Z"/><path d="M11.737 22.75h-.722c-1.183 0-2.15399-.888-2.26199-2.064l-.01401-.147c-.025-.287-.207-.533-.472-.644-.286-.12-.58201-.065-.79801.115l-.11599.097c-.868.725-2.253.663-3.06-.14l-.51-.51c-.836-.84-.89599-2.154-.13999-3.06l.09799-.118c.186-.222.22999-.523.12199-.787-.11-.272-.35799-.454-.64599-.48l-.15-.014C1.887 14.891 1 13.918 1 12.736v-.722c0-1.183.888-2.154 2.064-2.262l.156-.014c.285-.025.53-.207.642-.473.11-.27.065-.573-.12-.795l-.09401-.116C2.891 7.446 2.95 6.131 3.785 5.294l.512-.512c.804-.804 2.18799-.865 3.05999-.14l.116.098c.218.184.52801.23.79001.122.27-.112.45201-.358.47701-.643l.01399-.153C8.861 2.886 9.83401 2 11.016 2h.722c1.183 0 2.154.888 2.262 2.064l.014.156c.025.285.206.53.472.64.277.117.58.062.794-.117l.12-.102c.867-.723 2.254-.662 3.06.14l.51.512c.836.838.896 2.153.14 3.06l-.1.118c-.188.22-.234.522-.123.788.112.27.36.45.646.478l.152.014c1.18.107 2.067 1.08 2.067 2.262v.723c0 1.183-.888 2.154-2.064 2.262l-.155.014c-.284.024-.53.205-.64.47-.113.272-.067.574.117.795l.1.12c.756.905.696 2.22-.14 3.06l-.51.51c-.807.804-2.19.864-3.06.14l-.115-.096c-.217-.183-.53-.23-.79-.122-.273.114-.455.36-.48.646l-.014.15c-.107 1.173-1.08 2.06-2.262 2.06l-.002.005Zm-3.773-4.42c.3 0 .593.06.87.175.79.328 1.324 1.054 1.4 1.896l.014.147c.037.4.367.7.77.7h.722c.4 0 .73-.3.768-.7l.014-.148c.076-.842.61-1.567 1.392-1.892.793-.33 1.696-.182 2.333.35l.113.094c.178.148.366.18.493.18.206 0 .4-.08.546-.227l.51-.51c.284-.284.305-.73.048-1.038l-.1-.12c-.542-.65-.677-1.54-.352-2.323.326-.79 1.052-1.32 1.894-1.397l.155-.014c.397-.037.7-.367.7-.77v-.722c0-.4-.303-.73-.702-.768l-.152-.014c-.846-.078-1.57-.61-1.895-1.393-.326-.788-.19-1.678.353-2.327l.1-.118c.257-.31.236-.756-.048-1.04l-.51-.51c-.146-.147-.34-.227-.546-.227-.127 0-.315.032-.492.18l-.12.1c-.634.528-1.55.67-2.322.354-.788-.327-1.32-1.052-1.397-1.896l-.014-.155c-.035-.397-.365-.7-.767-.7h-.723c-.4 0-.73.303-.768.702l-.014.152c-.076.843-.608 1.568-1.39 1.893-.787.326-1.693.183-2.33-.35l-.118-.096c-.18-.15-.36801-.18-.49501-.18-.206 0-.39999.08-.54599.226l-.51201.51c-.282.284-.30299.73-.04599 1.038l.09999.118c.54.653.67701 1.544.35201 2.325-.327.788-1.05201 1.32-1.89501 1.397l-.15599.014c-.397.037-.70001.367-.70001.77v.722c0 .4.30301.73.70201.768l.15.014c.848.078 1.573.612 1.897 1.396.325.786.19 1.675-.353 2.325l-.09601.115c-.26.31-.23799.756.04601 1.04l.50999.51c.146.147.34001.227.54601.227.127 0 .315-.03.492-.18l.116-.096c.406-.336.923-.524 1.453-.524v-.003Z"/></g></svg>